<svg display="none" xmlns="http://www.w3.org/2000/svg">
<symbol id="facebook"  viewBox="0 0 20 20" fill="#ffffff">
<g id="SVGRepo_bgCarrier" stroke-width="0"/>
<g id="SVGRepo_tracerCarrier" stroke-linecap="round" stroke-linejoin="round"/>
<g id="SVGRepo_iconCarrier"> <rect x="0" fill="none" width="20" height="20"/> <g> <path d="M2.89 2h14.23c.49 0 .88.39.88.88v14.24c0 .48-.39.88-.88.88h-4.08v-6.2h2.08l.31-2.41h-2.39V7.85c0-.7.2-1.18 1.2-1.18h1.28V4.51c-.22-.03-.98-.09-1.86-.09-1.85 0-3.11 1.12-3.11 3.19v1.78H8.46v2.41h2.09V18H2.89c-.49 0-.89-.4-.89-.88V2.88c0-.49.4-.88.89-.88z"/> </g> </g>
</symbol>

<symbol id="twitter"  viewBox="0 -2 20 20">
<g id="SVGRepo_bgCarrier" stroke-width="0"/>
<g id="SVGRepo_tracerCarrier" stroke-linecap="round" stroke-linejoin="round"/>
<g id="SVGRepo_iconCarrier"> <title>twitter [#154]</title> <desc>Created with Sketch.</desc> <defs> </defs> <g id="Page-1" stroke="none" stroke-width="1" fill="none" fill-rule="evenodd"> <g id="Dribbble-Light-Preview" transform="translate(-60.000000, -7521.000000)" fill="#ffffff"> <g id="icons" transform="translate(56.000000, 160.000000)"> <path d="M10.29,7377 C17.837,7377 21.965,7370.84365 21.965,7365.50546 C21.965,7365.33021 21.965,7365.15595 21.953,7364.98267 C22.756,7364.41163 23.449,7363.70276 24,7362.8915 C23.252,7363.21837 22.457,7363.433 21.644,7363.52751 C22.5,7363.02244 23.141,7362.2289 23.448,7361.2926 C22.642,7361.76321 21.761,7362.095 20.842,7362.27321 C19.288,7360.64674 16.689,7360.56798 15.036,7362.09796 C13.971,7363.08447 13.518,7364.55538 13.849,7365.95835 C10.55,7365.79492 7.476,7364.261 5.392,7361.73762 C4.303,7363.58363 4.86,7365.94457 6.663,7367.12996 C6.01,7367.11125 5.371,7366.93797 4.8,7366.62489 L4.8,7366.67608 C4.801,7368.5989 6.178,7370.2549 8.092,7370.63591 C7.488,7370.79836 6.854,7370.82199 6.24,7370.70483 C6.777,7372.35099 8.318,7373.47829 10.073,7373.51078 C8.62,7374.63513 6.825,7375.24554 4.977,7375.24358 C4.651,7375.24259 4.325,7375.22388 4,7375.18549 C5.877,7376.37088 8.06,7377 10.29,7376.99705" id="twitter-[#154]"> </path> </g> </g> </g> </g>
</symbol>


<symbol id="instagram"  viewBox="0 -0.5 25 25">
<g id="SVGRepo_bgCarrier" stroke-width="0"/>
<g id="SVGRepo_tracerCarrier" stroke-linecap="round" stroke-linejoin="round"/>
<g id="SVGRepo_iconCarrier"> <path fill-rule="evenodd" clip-rule="evenodd" fill="#2C343E" d="M15.5 5H9.5C7.29086 5 5.5 6.79086 5.5 9V15C5.5 17.2091 7.29086 19 9.5 19H15.5C17.7091 19 19.5 17.2091 19.5 15V9C19.5 6.79086 17.7091 5 15.5 5Z" stroke="#ffffff" stroke-width="1.5" stroke-linecap="round" stroke-linejoin="round"/> <path fill-rule="evenodd" clip-rule="evenodd" fill="#ffffff" d="M12.5 15C10.8431 15 9.5 13.6569 9.5 12C9.5 10.3431 10.8431 9 12.5 9C14.1569 9 15.5 10.3431 15.5 12C15.5 12.7956 15.1839 13.5587 14.6213 14.1213C14.0587 14.6839 13.2956 15 12.5 15Z" stroke="#ffffff" stroke-width="1.5" stroke-linecap="round" stroke-linejoin="round"/> <rect x="15.5" y="9" width="2" height="2" rx="1" transform="rotate(-90 15.5 9)" fill="#ffffff"/> <rect x="16" y="8.5" width="1" height="1" rx="0.5" transform="rotate(-90 16 8.5)" stroke="#ffffff" stroke-linecap="round"/> </g>
</symbol>
</svg>
